<svg width="475" height="116" viewBox="0 0 475 116" fill="none" xmlns="http://www.w3.org/2000/svg">
<g filter="url(#filter0_d_190_117)">
<path d="M39.0515 94.632C36.2355 94.632 33.2595 94.184 30.1235 93.288C26.9875 92.392 23.9155 91.048 20.9075 89.256C17.8995 87.464 15.1475 85.192 12.6515 82.44C10.2195 79.624 8.2675 76.36 6.7955 72.648C5.3875 68.872 4.6835 64.584 4.6835 59.784C4.6835 55.176 5.3875 51.08 6.7955 47.496C8.2675 43.848 10.2195 40.68 12.6515 37.992C15.0835 35.304 17.8035 33.096 20.8115 31.368C23.8195 29.576 26.9235 28.264 30.1235 27.432C33.3235 26.536 36.3635 26.088 39.2435 26.088C42.5075 26.088 45.3555 26.472 47.7875 27.24C50.2195 28.008 52.2035 28.808 53.7395 29.64C55.2755 30.408 56.2355 30.952 56.6195 31.272C57.7715 31.976 58.8595 32.776 59.8835 33.672C60.9075 34.568 61.4515 35.752 61.5155 37.224C61.5155 37.992 61.3555 38.76 61.0355 39.528C60.7795 40.232 60.3635 41 59.7875 41.832C58.7635 43.304 57.7715 44.392 56.8115 45.096C55.9155 45.736 54.9875 46.056 54.0275 46.056C53.2595 46.056 52.5235 45.864 51.8195 45.48C51.1795 45.096 50.3475 44.584 49.3235 43.944C48.8755 43.624 48.2355 43.24 47.4035 42.792C46.5715 42.28 45.4515 41.832 44.0435 41.448C42.6355 41 40.8435 40.776 38.6675 40.776C36.4275 40.776 34.1555 41.192 31.8515 42.024C29.6115 42.792 27.5315 43.976 25.6115 45.576C23.6915 47.176 22.1555 49.224 21.0035 51.72C19.8515 54.152 19.2755 57 19.2755 60.264C19.2755 63.656 19.8515 66.568 21.0035 69C22.2195 71.432 23.7875 73.448 25.7075 75.048C27.6275 76.648 29.7075 77.864 31.9475 78.696C34.2515 79.464 36.4915 79.848 38.6675 79.848C40.5875 79.848 42.2195 79.656 43.5635 79.272C44.9715 78.888 46.1555 78.44 47.1155 77.928C48.1395 77.352 49.0035 76.84 49.7075 76.392C50.4115 75.944 51.1155 75.528 51.8195 75.144C52.5875 74.76 53.3555 74.568 54.1235 74.568C55.0195 74.568 55.9155 74.92 56.8115 75.624C57.7715 76.328 58.7315 77.448 59.6915 78.984C60.2675 79.816 60.7155 80.648 61.0355 81.48C61.3555 82.248 61.4835 83.016 61.4195 83.784C61.4195 85.128 60.9075 86.248 59.8835 87.144C58.8595 87.976 57.7715 88.744 56.6195 89.448C56.1075 89.704 55.1155 90.28 53.6435 91.176C52.1715 92.008 50.2195 92.776 47.7875 93.48C45.3555 94.248 42.4435 94.632 39.0515 94.632ZM74.627 93.864C72.323 93.864 70.659 93.544 69.635 92.904C68.611 92.2 67.971 91.304 67.715 90.216C67.523 89.064 67.427 87.848 67.427 86.568V31.272C67.427 29.992 67.555 28.808 67.811 27.72C68.067 26.632 68.707 25.768 69.731 25.128C70.755 24.424 72.419 24.072 74.723 24.072C77.091 24.072 78.755 24.424 79.715 25.128C80.739 25.832 81.347 26.728 81.539 27.816C81.795 28.904 81.923 30.088 81.923 31.368V50.952C83.075 49.736 84.547 48.584 86.339 47.496C88.195 46.408 90.371 45.864 92.867 45.864C96.835 45.864 100.387 46.888 103.523 48.936C106.723 50.92 109.251 53.672 111.107 57.192C113.027 60.712 113.987 64.744 113.987 69.288V86.664C113.987 87.944 113.859 89.128 113.603 90.216C113.347 91.304 112.739 92.2 111.779 92.904C110.819 93.544 109.123 93.864 106.691 93.864C104.451 93.864 102.787 93.544 101.699 92.904C100.675 92.2 100.035 91.304 99.779 90.216C99.587 89.064 99.491 87.848 99.491 86.568V69.192C99.491 67.336 99.171 65.768 98.531 64.488C97.891 63.144 96.931 62.088 95.651 61.32C94.435 60.552 92.931 60.168 91.139 60.168C88.771 60.168 86.691 60.904 84.899 62.376C83.171 63.784 82.179 65.512 81.923 67.56V86.664C81.923 87.944 81.795 89.128 81.539 90.216C81.283 91.304 80.643 92.2 79.619 92.904C78.659 93.544 76.995 93.864 74.627 93.864ZM144.775 94.728C140.295 94.728 136.423 93.992 133.159 92.52C129.959 91.048 127.335 89.128 125.287 86.76C123.239 84.328 121.703 81.64 120.679 78.696C119.719 75.752 119.239 72.808 119.239 69.864C119.239 65.064 120.327 60.808 122.503 57.096C124.679 53.384 127.687 50.472 131.527 48.36C135.367 46.184 139.783 45.096 144.775 45.096C148.487 45.096 151.687 45.704 154.375 46.92C157.127 48.072 159.367 49.608 161.095 51.528C162.887 53.384 164.199 55.4 165.031 57.576C165.927 59.752 166.375 61.832 166.375 63.816C166.375 67.336 165.511 69.96 163.783 71.688C162.119 73.352 159.975 74.184 157.351 74.184H134.503C134.631 75.848 135.207 77.256 136.231 78.408C137.319 79.56 138.663 80.456 140.263 81.096C141.863 81.736 143.559 82.056 145.351 82.056C146.887 82.056 148.231 81.992 149.383 81.864C150.535 81.672 151.527 81.448 152.359 81.192C153.191 80.872 153.959 80.584 154.663 80.328C155.367 80.008 155.975 79.752 156.487 79.56C157.063 79.368 157.607 79.24 158.119 79.176C159.079 79.112 159.943 79.4 160.711 80.04C161.543 80.616 162.279 81.512 162.919 82.728C163.367 83.432 163.655 84.104 163.783 84.744C163.975 85.384 164.071 86.024 164.071 86.664C164.071 88.2 163.271 89.576 161.671 90.792C160.135 92.008 157.927 92.968 155.047 93.672C152.231 94.376 148.807 94.728 144.775 94.728ZM134.503 66.312H149.671C150.695 66.312 151.431 66.152 151.879 65.832C152.391 65.448 152.647 64.744 152.647 63.72C152.647 62.568 152.295 61.576 151.591 60.744C150.887 59.848 149.927 59.176 148.711 58.728C147.559 58.216 146.215 57.96 144.679 57.96C142.695 57.96 140.935 58.344 139.399 59.112C137.863 59.88 136.647 60.904 135.751 62.184C134.919 63.464 134.503 64.84 134.503 66.312ZM179.538 93.864C177.234 93.864 175.57 93.512 174.546 92.808C173.522 92.104 172.914 91.208 172.722 90.12C172.53 89.032 172.434 87.848 172.434 86.568V52.968C172.434 51.688 172.53 50.536 172.722 49.512C172.978 48.424 173.618 47.56 174.642 46.92C175.666 46.216 177.362 45.864 179.73 45.864C182.098 45.864 183.826 46.344 184.914 47.304C186.002 48.2 186.546 49.704 186.546 51.816L185.298 52.872C185.426 52.552 185.81 52.008 186.45 51.24C187.09 50.472 187.922 49.672 188.946 48.84C189.97 48.008 191.154 47.304 192.498 46.728C193.906 46.088 195.41 45.768 197.01 45.768C199.122 45.768 201.01 46.088 202.674 46.728C204.402 47.304 205.938 48.2 207.282 49.416C208.69 50.568 209.906 52.04 210.93 53.832C211.826 52.552 212.914 51.304 214.194 50.088C215.474 48.872 216.978 47.848 218.706 47.016C220.498 46.184 222.482 45.768 224.658 45.768C228.37 45.768 231.506 46.728 234.066 48.648C236.69 50.504 238.674 53.192 240.018 56.712C241.362 60.232 242.034 64.488 242.034 69.48V86.664C242.034 87.88 241.906 89.064 241.65 90.216C241.458 91.304 240.85 92.2 239.826 92.904C238.802 93.544 237.106 93.864 234.738 93.864C232.37 93.864 230.674 93.512 229.65 92.808C228.69 92.104 228.082 91.208 227.826 90.12C227.634 88.968 227.538 87.784 227.538 86.568V69.384C227.538 67.4 227.314 65.736 226.866 64.392C226.418 63.048 225.714 62.024 224.754 61.32C223.858 60.552 222.706 60.168 221.298 60.168C219.826 60.168 218.578 60.52 217.554 61.224C216.53 61.864 215.762 62.888 215.25 64.296C214.738 65.64 214.482 67.368 214.482 69.48V86.664C214.482 87.944 214.322 89.16 214.002 90.312C213.682 91.4 212.978 92.296 211.89 93C210.866 93.64 209.202 93.928 206.898 93.864C204.594 93.8 202.962 93.416 202.002 92.712C201.042 92.008 200.466 91.112 200.274 90.024C200.082 88.872 199.986 87.72 199.986 86.568V69.384C199.986 67.4 199.762 65.736 199.314 64.392C198.866 62.984 198.194 61.928 197.298 61.224C196.402 60.52 195.218 60.168 193.746 60.168C192.146 60.168 190.834 60.584 189.81 61.416C188.786 62.248 188.018 63.368 187.506 64.776C187.058 66.12 186.834 67.656 186.834 69.384V86.664C186.834 87.944 186.706 89.128 186.45 90.216C186.258 91.304 185.65 92.2 184.626 92.904C183.602 93.544 181.906 93.864 179.538 93.864ZM257.272 93.864C254.904 93.864 253.208 93.544 252.184 92.904C251.224 92.2 250.616 91.304 250.36 90.216C250.168 89.064 250.072 87.88 250.072 86.664V53.16C250.072 51.88 250.168 50.696 250.36 49.608C250.616 48.52 251.256 47.656 252.28 47.016C253.304 46.312 255 45.96 257.368 45.96C259.672 45.96 261.304 46.312 262.264 47.016C263.288 47.72 263.896 48.616 264.088 49.704C264.344 50.792 264.472 52.008 264.472 53.352V86.76C264.472 87.976 264.344 89.16 264.088 90.312C263.896 91.4 263.288 92.264 262.264 92.904C261.304 93.544 259.64 93.864 257.272 93.864ZM257.272 38.952C254.84 38.952 253.112 38.6 252.088 37.896C251.064 37.192 250.424 36.264 250.168 35.112C249.976 33.96 249.88 32.744 249.88 31.464C249.88 30.12 250.008 28.904 250.264 27.816C250.52 26.664 251.16 25.768 252.184 25.128C253.208 24.424 254.936 24.072 257.368 24.072C259.736 24.072 261.432 24.424 262.456 25.128C263.48 25.832 264.088 26.76 264.28 27.912C264.536 29.064 264.664 30.28 264.664 31.56C264.664 32.84 264.536 34.056 264.28 35.208C264.088 36.36 263.48 37.288 262.456 37.992C261.432 38.632 259.704 38.952 257.272 38.952ZM281.482 93.864C279.178 93.864 277.514 93.544 276.49 92.904C275.466 92.2 274.826 91.272 274.57 90.12C274.314 88.968 274.186 87.784 274.186 86.568V34.056C274.186 32.776 274.282 31.592 274.474 30.504C274.73 29.416 275.37 28.52 276.394 27.816C277.418 27.112 279.114 26.76 281.482 26.76C283.914 26.76 285.61 27.112 286.57 27.816C287.594 28.52 288.202 29.416 288.394 30.504C288.65 31.592 288.778 32.776 288.778 34.056V81.192H315.082C316.17 81.192 317.194 81.288 318.154 81.48C319.114 81.672 319.882 82.216 320.458 83.112C321.098 84.008 321.418 85.48 321.418 87.528C321.418 89.512 321.098 90.984 320.458 91.944C319.818 92.84 319.018 93.384 318.058 93.576C317.162 93.768 316.17 93.864 315.082 93.864H281.482ZM350.932 94.728C346.452 94.728 342.58 93.992 339.316 92.52C336.116 91.048 333.492 89.128 331.444 86.76C329.396 84.328 327.86 81.64 326.836 78.696C325.876 75.752 325.396 72.808 325.396 69.864C325.396 65.064 326.484 60.808 328.66 57.096C330.836 53.384 333.844 50.472 337.684 48.36C341.524 46.184 345.94 45.096 350.932 45.096C354.644 45.096 357.844 45.704 360.532 46.92C363.284 48.072 365.524 49.608 367.252 51.528C369.044 53.384 370.356 55.4 371.188 57.576C372.083 59.752 372.531 61.832 372.531 63.816C372.531 67.336 371.668 69.96 369.94 71.688C368.276 73.352 366.132 74.184 363.508 74.184H340.66C340.788 75.848 341.364 77.256 342.388 78.408C343.476 79.56 344.82 80.456 346.42 81.096C348.02 81.736 349.716 82.056 351.508 82.056C353.044 82.056 354.388 81.992 355.54 81.864C356.692 81.672 357.684 81.448 358.516 81.192C359.348 80.872 360.116 80.584 360.82 80.328C361.524 80.008 362.132 79.752 362.644 79.56C363.22 79.368 363.764 79.24 364.276 79.176C365.236 79.112 366.1 79.4 366.868 80.04C367.7 80.616 368.436 81.512 369.076 82.728C369.524 83.432 369.812 84.104 369.94 84.744C370.132 85.384 370.228 86.024 370.228 86.664C370.228 88.2 369.428 89.576 367.828 90.792C366.292 92.008 364.084 92.968 361.204 93.672C358.388 94.376 354.964 94.728 350.932 94.728ZM340.66 66.312H355.828C356.852 66.312 357.588 66.152 358.036 65.832C358.548 65.448 358.804 64.744 358.804 63.72C358.804 62.568 358.452 61.576 357.748 60.744C357.044 59.848 356.084 59.176 354.868 58.728C353.716 58.216 352.372 57.96 350.836 57.96C348.852 57.96 347.092 58.344 345.556 59.112C344.02 59.88 342.804 60.904 341.908 62.184C341.076 63.464 340.66 64.84 340.66 66.312ZM385.886 93.768C383.518 93.768 381.822 93.448 380.798 92.808C379.838 92.104 379.23 91.208 378.974 90.12C378.782 88.968 378.686 87.784 378.686 86.568V52.776C378.686 51.56 378.814 50.44 379.07 49.416C379.326 48.328 379.934 47.464 380.894 46.824C381.918 46.184 383.614 45.864 385.982 45.864C388.03 45.864 389.534 46.152 390.494 46.728C391.454 47.24 392.062 47.88 392.318 48.648C392.638 49.416 392.798 50.152 392.798 50.856C392.798 51.496 392.862 51.944 392.99 52.2L392.414 54.024C392.542 53.064 393.022 52.104 393.854 51.144C394.75 50.12 395.838 49.224 397.118 48.456C398.462 47.624 399.87 46.984 401.342 46.536C402.878 46.088 404.382 45.864 405.854 45.864C408.926 45.864 411.646 46.44 414.014 47.592C416.446 48.68 418.494 50.28 420.158 52.392C421.822 54.504 423.07 57 423.902 59.88C424.798 62.696 425.246 65.8 425.246 69.192V86.664C425.246 87.88 425.118 89.064 424.862 90.216C424.67 91.304 424.062 92.168 423.038 92.808C422.078 93.448 420.414 93.768 418.046 93.768C415.614 93.768 413.886 93.448 412.862 92.808C411.902 92.104 411.294 91.208 411.038 90.12C410.782 88.968 410.654 87.784 410.654 86.568V69.192C410.654 67.272 410.334 65.64 409.694 64.296C409.054 62.952 408.094 61.928 406.814 61.224C405.534 60.456 403.966 60.072 402.11 60.072C400.254 60.072 398.654 60.456 397.31 61.224C395.966 61.992 394.91 63.048 394.142 64.392C393.438 65.736 393.086 67.336 393.086 69.192V86.664C393.086 87.88 392.958 89.064 392.702 90.216C392.51 91.304 391.902 92.168 390.878 92.808C389.918 93.448 388.254 93.768 385.886 93.768ZM450.06 94.632C448.332 94.632 446.444 94.44 444.396 94.056C442.412 93.672 440.46 93.128 438.54 92.424C436.62 91.656 435.02 90.792 433.74 89.832C432.46 88.808 431.724 87.656 431.532 86.376C431.404 85.736 431.404 85.064 431.532 84.36C431.724 83.592 432.044 82.824 432.492 82.056C432.94 81.224 433.484 80.36 434.124 79.464C434.636 78.76 435.212 78.312 435.852 78.12C436.492 77.928 437.228 77.96 438.06 78.216C439.084 78.408 440.108 78.76 441.132 79.272C442.22 79.72 443.276 80.232 444.3 80.808C445.388 81.32 446.508 81.8 447.66 82.248C448.812 82.632 449.996 82.824 451.212 82.824C453.004 82.824 454.38 82.568 455.34 82.056C456.364 81.48 456.876 80.712 456.876 79.752C456.876 79.048 456.652 78.472 456.204 78.024C455.82 77.576 455.244 77.192 454.476 76.872C453.772 76.488 452.94 76.168 451.98 75.912C451.02 75.656 449.964 75.4 448.812 75.144C447.724 74.824 446.604 74.504 445.452 74.184C443.852 73.736 442.316 73.16 440.844 72.456C439.372 71.752 438.028 70.856 436.812 69.768C435.596 68.616 434.636 67.24 433.932 65.64C433.228 63.976 432.876 61.96 432.876 59.592C432.876 56.456 433.612 53.832 435.084 51.72C436.556 49.608 438.7 48.008 441.516 46.92C444.332 45.768 447.756 45.192 451.788 45.192C452.94 45.192 454.092 45.256 455.244 45.384C456.396 45.512 457.516 45.736 458.604 46.056C459.756 46.376 460.876 46.76 461.964 47.208C463.052 47.656 464.14 48.2 465.228 48.84C467.148 49.736 468.14 50.952 468.204 52.488C468.268 54.024 467.724 55.592 466.572 57.192C465.868 58.28 465.132 59.08 464.364 59.592C463.596 60.04 462.796 60.168 461.964 59.976C460.94 59.72 459.82 59.304 458.604 58.728C457.452 58.152 456.204 57.608 454.86 57.096C453.58 56.584 452.3 56.328 451.02 56.328C449.932 56.328 449.004 56.488 448.236 56.808C447.468 57.064 446.892 57.448 446.508 57.96C446.124 58.408 445.932 58.952 445.932 59.592C445.932 60.424 446.156 61.096 446.604 61.608C447.116 62.056 447.788 62.44 448.62 62.76C449.452 63.08 450.412 63.368 451.5 63.624C452.588 63.88 453.772 64.136 455.052 64.392C456.78 64.712 458.54 65.16 460.332 65.736C462.188 66.248 463.852 67.016 465.324 68.04C466.86 69.064 468.076 70.44 468.972 72.168C469.932 73.896 470.412 76.168 470.412 78.984C470.412 84.04 468.652 87.912 465.132 90.6C461.612 93.288 456.588 94.632 450.06 94.632Z" fill="url(#paint0_linear_190_117)"/>
</g>
<defs>
<filter id="filter0_d_190_117" x="0.683594" y="24.072" width="473.728" height="78.656" filterUnits="userSpaceOnUse" color-interpolation-filters="sRGB">
<feFlood flood-opacity="0" result="BackgroundImageFix"/>
<feColorMatrix in="SourceAlpha" type="matrix" values="0 0 0 0 0 0 0 0 0 0 0 0 0 0 0 0 0 0 127 0" result="hardAlpha"/>
<feOffset dy="4"/>
<feGaussianBlur stdDeviation="2"/>
<feComposite in2="hardAlpha" operator="out"/>
<feColorMatrix type="matrix" values="0 0 0 0 0 0 0 0 0 0 0 0 0 0 0 0 0 0 0.25 0"/>
<feBlend mode="normal" in2="BackgroundImageFix" result="effect1_dropShadow_190_117"/>
<feBlend mode="normal" in="SourceGraphic" in2="effect1_dropShadow_190_117" result="shape"/>
</filter>
<linearGradient id="paint0_linear_190_117" x1="2" y1="58" x2="473" y2="58" gradientUnits="userSpaceOnUse">
<stop offset="0.596154" stop-color="#53CBF6"/>
<stop offset="1" stop-color="#E3579D"/>
</linearGradient>
</defs>
</svg>
