<svg width="57" height="57" viewBox="0 0 57 57" fill="none" xmlns="http://www.w3.org/2000/svg">
<path d="M9.44318 14.4412H19.2159L21.6591 9H35.3409L37.7841 14.4412H47.5568C48.2048 14.4412 48.8262 14.6705 49.2844 15.0787C49.7426 15.4868 50 16.0404 50 16.6176V43.8235C50 44.4008 49.7426 44.9544 49.2844 45.3625C48.8262 45.7707 48.2048 46 47.5568 46H9.44318C8.79521 46 8.17378 45.7707 7.71559 45.3625C7.25741 44.9544 7 44.4008 7 43.8235V16.6176C7 16.0404 7.25741 15.4868 7.71559 15.0787C8.17378 14.6705 8.79521 14.4412 9.44318 14.4412Z" stroke="black" stroke-width="2.22266" stroke-linejoin="round"/>
<path d="M28 40C32.9706 40 37 35.9706 37 31C37 26.0294 32.9706 22 28 22C23.0294 22 19 26.0294 19 31C19 35.9706 23.0294 40 28 40Z" stroke="black" stroke-width="2.22266"/>
<path d="M28 25L33 28.12V33.88L28 37L23 33.88V28.12L28 25Z" stroke="black" stroke-width="1.33359"/>
<path d="M43.667 21.334C44.5876 21.334 45.334 20.5876 45.334 19.667C45.334 18.7463 44.5876 18 43.667 18C42.7463 18 42 18.7463 42 19.667C42 20.5876 42.7463 21.334 43.667 21.334Z" fill="black"/>
<path d="M31 29V33" stroke="black" stroke-width="0.889063"/>
<path d="M24.6989 32.3815L28.3029 34.62" stroke="black" stroke-width="0.889063"/>
<path d="M28 27L25 29" stroke="black" stroke-width="0.889063"/>
</svg>
